{"asset":{"version":"2.0","generator":"babylon.js glTF exporter for 3dsmax 2019 v20201123.8"},"extensionsUsed":["KHR_lights_punctual","KHR_texture_transform"],"extensionsRequired":["KHR_texture_transform"],"scene":0,"scenes":[{"nodes":[0,2,3,4,5,10,12,14,15,16,17]}],"nodes":[{"children":[1],"translation":[0.482548743,-1.41330421,0.898431],"rotation":[0.0,-0.353485763,0.0,0.935439944],"scale":[0.25,0.25,0.25],"name":"Dummy002"},{"mesh":0,"translation":[1.6129266,-0.129502565,0.00269088731],"rotation":[2.725736E-11,8.049697E-09,-2.77608284E-11,1.0],"scale":[0.925573,0.9255728,0.9255729],"name":"Sphere002"},{"translation":[0.367943257,-1.39657211,0.895088732],"rotation":[0.407071978,-0.02837389,0.012652671,0.9128676],"scale":[0.25000003,0.249999911,0.249999925],"name":"Camera001.Target"},{"mesh":1,"translation":[0.482445985,-1.4164,0.8985338],"rotation":[0.0456429757,-0.917284667,-0.110191911,-0.379951745],"scale":[0.145519584,0.145519584,0.145519584],"name":"Box002"},{"mesh":2,"translation":[0.482548743,-1.35041177,0.898431],"scale":[0.25,0.25,0.25],"name":"Cylinder002"},{"children":[6,8,9],"translation":[0.482548743,-1.35041177,0.898431],"scale":[0.25,0.25,0.25],"name":"Object003"},{"children":[7],"mesh":3,"translation":[0.0,-0.07955261,0.0],"name":"Object005"},{"mesh":4,"translation":[0.0,-0.08036254,0.0],"name":"Cylinder003"},{"mesh":5,"name":"Object004"},{"mesh":6,"rotation":[0.0,0.0,-5.337381E-09,1.0],"name":"Object006"},{"children":[11],"translation":[0.482548743,-1.41330421,0.898431],"rotation":[0.0,-0.353485763,0.0,0.935439944],"scale":[0.25,0.25,0.25],"name":"Dummy003"},{"mesh":7,"translation":[0.0,0.1703778,-1.52587887E-07],"rotation":[-0.9905693,2.31727459E-09,1.6252665E-08,-0.137012824],"scale":[0.925573,0.9255728,0.925573],"name":"Sphere004"},{"children":[13],"translation":[0.482548743,-1.41330421,0.898431],"rotation":[0.0,-0.353485763,0.0,0.935439944],"scale":[0.25,0.25,0.25],"name":"Dummy005"},{"mesh":8,"translation":[-3.05175774E-07,0.178594962,0.0],"rotation":[-0.9905693,2.31727459E-09,1.6252665E-08,-0.137012824],"scale":[0.925573,0.9255728,0.925573],"name":"Sphere005"},{"translation":[5.98416471,7.44961357,1.797854],"rotation":[0.0,-0.7071069,5.96046448E-08,0.7071067],"name":"Omni001","extensions":{"KHR_lights_punctual":{"light":0}}},{"translation":[2.63132715,1.84622538,-0.5557028],"rotation":[0.0,-0.7071069,5.96046448E-08,0.7071067],"name":"Omni002","extensions":{"KHR_lights_punctual":{"light":1}}},{"translation":[-1.24636924,2.16953,-0.97983855],"rotation":[0.0,-0.7071069,5.96046448E-08,0.7071067],"name":"Omni003","extensions":{"KHR_lights_punctual":{"light":2}}},{"camera":0,"translation":[-0.5373756,-0.146873772,0.9892828],"rotation":[-0.336832374,-0.5967251,-0.303604841,0.6620326],"scale":[1.0,0.9999998,0.9999999],"name":"Camera001"}],"cameras":[{"perspective":{"yfov":0.457822353,"zfar":10000.0,"znear":0.1},"type":"perspective","name":"Camera001"}],"meshes":[{"primitives":[{"attributes":{"POSITION":1,"NORMAL":2,"TEXCOORD_0":3},"indices":0,"material":0}],"name":"Sphere002"},{"primitives":[{"attributes":{"POSITION":5,"NORMAL":6,"TEXCOORD_0":7},"indices":4,"material":1}],"name":"Box002"},{"primitives":[{"attributes":{"POSITION":9,"NORMAL":10,"TEXCOORD_0":11},"indices":8,"material":2},{"attributes":{"POSITION":13,"NORMAL":14,"TEXCOORD_0":15},"indices":12,"material":3}],"name":"Cylinder002"},{"primitives":[{"attributes":{"POSITION":17,"NORMAL":18,"TEXCOORD_0":19},"indices":16,"material":4},{"attributes":{"POSITION":21,"NORMAL":22,"TEXCOORD_0":23},"indices":20,"material":5}],"name":"Object005"},{"primitives":[{"attributes":{"POSITION":25,"NORMAL":26,"TEXCOORD_0":27},"indices":24,"material":5}],"name":"Cylinder003"},{"primitives":[{"attributes":{"POSITION":29,"NORMAL":30,"TEXCOORD_0":31},"indices":28,"material":6},{"attributes":{"POSITION":33,"NORMAL":34,"TEXCOORD_0":35},"indices":32,"material":5}],"name":"Object004"},{"primitives":[{"attributes":{"POSITION":37,"NORMAL":38,"TEXCOORD_0":39},"indices":36,"material":7},{"attributes":{"POSITION":41,"NORMAL":42,"TEXCOORD_0":43},"indices":40,"material":8},{"attributes":{"POSITION":45,"NORMAL":46,"TEXCOORD_0":47},"indices":44,"material":5}],"name":"Object006"},{"primitives":[{"attributes":{"POSITION":49,"NORMAL":50,"TEXCOORD_0":51},"indices":48,"material":9}],"name":"Sphere004"},{"primitives":[{"attributes":{"POSITION":53,"NORMAL":54,"TEXCOORD_0":55},"indices":52,"material":10}],"name":"Sphere005"}],"accessors":[{"bufferView":0,"componentType":5123,"count":3840,"type":"SCALAR","name":"accessorIndices"},{"bufferView":1,"componentType":5126,"count":3840,"max":[0.0397369862,0.04111111,0.03976291],"min":[-0.03973698,-0.04111111,-0.03976295],"type":"VEC3","name":"accessorPositions"},{"bufferView":1,"byteOffset":46080,"componentType":5126,"count":3840,"type":"VEC3","name":"accessorNormals"},{"bufferView":2,"componentType":5126,"count":3840,"type":"VEC2","name":"accessorUVs"},{"bufferView":0,"byteOffset":7680,"componentType":5123,"count":16128,"type":"SCALAR","name":"accessorIndices"},{"bufferView":1,"byteOffset":92160,"componentType":5126,"count":16128,"max":[2.71251488,0.3580511,2.56419063],"min":[-2.712479,-0.9925329,-2.70644641],"type":"VEC3","name":"accessorPositions"},{"bufferView":1,"byteOffset":285696,"componentType":5126,"count":16128,"type":"VEC3","name":"accessorNormals"},{"bufferView":2,"byteOffset":30720,"componentType":5126,"count":16128,"type":"VEC2","name":"accessorUVs"},{"bufferView":0,"byteOffset":39936,"componentType":5123,"count":53808,"type":"SCALAR","name":"accessorIndices"},{"bufferView":1,"byteOffset":479232,"componentType":5126,"count":53808,"max":[1.79314482,-0.203388751,1.793122],"min":[-1.79310417,-1.13717091,-1.79312241],"type":"VEC3","name":"accessorPositions"},{"bufferView":1,"byteOffset":1124928,"componentType":5126,"count":53808,"type":"VEC3","name":"accessorNormals"},{"bufferView":2,"byteOffset":159744,"componentType":5126,"count":53808,"type":"VEC2","name":"accessorUVs"},{"bufferView":0,"byteOffset":147552,"componentType":5123,"count":192,"type":"SCALAR","name":"accessorIndices"},{"bufferView":1,"byteOffset":1770624,"componentType":5126,"count":192,"max":[1.49449825,-0.425095737,1.49224162],"min":[-1.49440718,-0.5360448,-1.49224067],"type":"VEC3","name":"accessorPositions"},{"bufferView":1,"byteOffset":1772928,"componentType":5126,"count":192,"type":"VEC3","name":"accessorNormals"},{"bufferView":2,"byteOffset":590208,"componentType":5126,"count":192,"type":"VEC2","name":"accessorUVs"},{"bufferView":0,"byteOffset":147936,"componentType":5123,"count":3552,"type":"SCALAR","name":"accessorIndices"},{"bufferView":1,"byteOffset":1775232,"componentType":5126,"count":3552,"max":[0.6457275,-0.517471969,0.6450368],"min":[-0.6451705,-0.6584188,-0.645036757],"type":"VEC3","name":"accessorPositions"},{"bufferView":1,"byteOffset":1817856,"componentType":5126,"count":3552,"type":"VEC3","name":"accessorNormals"},{"bufferView":2,"byteOffset":591744,"componentType":5126,"count":3552,"type":"VEC2","name":"accessorUVs"},{"bufferView":0,"byteOffset":155040,"componentType":5123,"count":2664,"type":"SCALAR","name":"accessorIndices"},{"bufferView":1,"byteOffset":1860480,"componentType":5126,"count":2664,"max":[0.660559535,-0.6582711,0.6598827],"min":[-0.660083532,-0.731666148,-0.6598822],"type":"VEC3","name":"accessorPositions"},{"bufferView":1,"byteOffset":1892448,"componentType":5126,"count":2664,"type":"VEC3","name":"accessorNormals"},{"bufferView":2,"byteOffset":620160,"componentType":5126,"count":2664,"type":"VEC2","name":"accessorUVs"},{"bufferView":0,"byteOffset":160368,"componentType":5123,"count":17280,"type":"SCALAR","name":"accessorIndices"},{"bufferView":1,"byteOffset":1924416,"componentType":5126,"count":17280,"max":[0.153816372,0.082182236,0.153815],"min":[-0.153813317,-0.448632836,-0.153814539],"type":"VEC3","name":"accessorPositions"},{"bufferView":1,"byteOffset":2131776,"componentType":5126,"count":17280,"type":"VEC3","name":"accessorNormals"},{"bufferView":2,"byteOffset":641472,"componentType":5126,"count":17280,"type":"VEC2","name":"accessorUVs"},{"bufferView":0,"byteOffset":194928,"componentType":5123,"count":3552,"type":"SCALAR","name":"accessorIndices"},{"bufferView":1,"byteOffset":2339136,"componentType":5126,"count":3552,"max":[1.34927416,-0.5399313,1.34927177],"min":[-1.34926963,-0.6900914,-1.34927118],"type":"VEC3","name":"accessorPositions"},{"bufferView":1,"byteOffset":2381760,"componentType":5126,"count":3552,"type":"VEC3","name":"accessorNormals"},{"bufferView":2,"byteOffset":779712,"componentType":5126,"count":3552,"type":"VEC2","name":"accessorUVs"},{"bufferView":0,"byteOffset":202032,"componentType":5123,"count":3552,"type":"SCALAR","name":"accessorIndices"},{"bufferView":1,"byteOffset":2424384,"componentType":5126,"count":3552,"max":[1.36087739,-0.5348915,1.36087477],"min":[-1.36087263,-0.5399324,-1.3608743],"type":"VEC3","name":"accessorPositions"},{"bufferView":1,"byteOffset":2467008,"componentType":5126,"count":3552,"type":"VEC3","name":"accessorNormals"},{"bufferView":2,"byteOffset":808128,"componentType":5126,"count":3552,"type":"VEC2","name":"accessorUVs"},{"bufferView":0,"byteOffset":209136,"componentType":5123,"count":5328,"type":"SCALAR","name":"accessorIndices"},{"bufferView":1,"byteOffset":2509632,"componentType":5126,"count":5328,"max":[0.9898892,-0.6948073,0.9898873],"min":[-0.989885867,-0.8108477,-0.9898871],"type":"VEC3","name":"accessorPositions"},{"bufferView":1,"byteOffset":2573568,"componentType":5126,"count":5328,"type":"VEC3","name":"accessorNormals"},{"bufferView":2,"byteOffset":836544,"componentType":5126,"count":5328,"type":"VEC2","name":"accessorUVs"},{"bufferView":0,"byteOffset":219792,"componentType":5123,"count":1776,"type":"SCALAR","name":"accessorIndices"},{"bufferView":1,"byteOffset":2637504,"componentType":5126,"count":1776,"max":[1.00356758,-0.6900903,1.00356579],"min":[-1.00356424,-0.6948085,-1.00356555],"type":"VEC3","name":"accessorPositions"},{"bufferView":1,"byteOffset":2658816,"componentType":5126,"count":1776,"type":"VEC3","name":"accessorNormals"},{"bufferView":2,"byteOffset":879168,"componentType":5126,"count":1776,"type":"VEC2","name":"accessorUVs"},{"bufferView":0,"byteOffset":223344,"componentType":5123,"count":23088,"type":"SCALAR","name":"accessorIndices"},{"bufferView":1,"byteOffset":2680128,"componentType":5126,"count":23088,"max":[0.9896764,-0.6948083,0.9889042],"min":[-0.98655653,-0.8108477,-0.988888144],"type":"VEC3","name":"accessorPositions"},{"bufferView":1,"byteOffset":2957184,"componentType":5126,"count":23088,"type":"VEC3","name":"accessorNormals"},{"bufferView":2,"byteOffset":893376,"componentType":5126,"count":23088,"type":"VEC2","name":"accessorUVs"},{"bufferView":0,"byteOffset":269520,"componentType":5123,"count":3840,"type":"SCALAR","name":"accessorIndices"},{"bufferView":1,"byteOffset":3234240,"componentType":5126,"count":3840,"max":[0.0397369862,0.04111111,0.03976291],"min":[-0.03973698,-0.04111111,-0.03976295],"type":"VEC3","name":"accessorPositions"},{"bufferView":1,"byteOffset":3280320,"componentType":5126,"count":3840,"type":"VEC3","name":"accessorNormals"},{"bufferView":2,"byteOffset":1078080,"componentType":5126,"count":3840,"type":"VEC2","name":"accessorUVs"},{"bufferView":0,"byteOffset":277200,"componentType":5123,"count":3840,"type":"SCALAR","name":"accessorIndices"},{"bufferView":1,"byteOffset":3326400,"componentType":5126,"count":3840,"max":[0.0397369862,0.04111111,0.03976291],"min":[-0.03973698,-0.04111111,-0.03976295],"type":"VEC3","name":"accessorPositions"},{"bufferView":1,"byteOffset":3372480,"componentType":5126,"count":3840,"type":"VEC3","name":"accessorNormals"},{"bufferView":2,"byteOffset":1108800,"componentType":5126,"count":3840,"type":"VEC2","name":"accessorUVs"},{"bufferView":3,"componentType":5126,"count":324,"max":[44.44],"min":[0.0],"type":"SCALAR","name":"accessorAnimationInput"},{"bufferView":4,"componentType":5126,"count":324,"type":"VEC4","name":"accessorAnimationRotations"},{"bufferView":3,"byteOffset":1296,"componentType":5126,"count":320,"max":[44.44],"min":[0.0],"type":"SCALAR","name":"accessorAnimationInput"},{"bufferView":5,"componentType":5126,"count":320,"type":"VEC3","name":"accessorAnimationPositions"},{"bufferView":3,"byteOffset":2576,"componentType":5126,"count":382,"max":[44.44],"min":[0.0],"type":"SCALAR","name":"accessorAnimationInput"},{"bufferView":4,"byteOffset":5184,"componentType":5126,"count":382,"type":"VEC4","name":"accessorAnimationRotations"},{"bufferView":3,"byteOffset":4104,"componentType":5126,"count":124,"max":[44.44],"min":[0.0],"type":"SCALAR","name":"accessorAnimationInput"},{"bufferView":4,"byteOffset":11296,"componentType":5126,"count":124,"type":"VEC4","name":"accessorAnimationRotations"},{"bufferView":3,"byteOffset":4600,"componentType":5126,"count":155,"max":[44.44],"min":[0.0],"type":"SCALAR","name":"accessorAnimationInput"},{"bufferView":4,"byteOffset":13280,"componentType":5126,"count":155,"type":"VEC4","name":"accessorAnimationRotations"},{"bufferView":3,"byteOffset":5220,"componentType":5126,"count":274,"max":[44.44],"min":[0.0],"type":"SCALAR","name":"accessorAnimationInput"},{"bufferView":5,"byteOffset":3840,"componentType":5126,"count":274,"type":"VEC3","name":"accessorAnimationPositions"},{"bufferView":3,"byteOffset":6316,"componentType":5126,"count":303,"max":[44.44],"min":[0.0],"type":"SCALAR","name":"accessorAnimationInput"},{"bufferView":4,"byteOffset":15760,"componentType":5126,"count":303,"type":"VEC4","name":"accessorAnimationRotations"},{"bufferView":3,"byteOffset":7528,"componentType":5126,"count":134,"max":[44.44],"min":[0.0],"type":"SCALAR","name":"accessorAnimationInput"},{"bufferView":4,"byteOffset":20608,"componentType":5126,"count":134,"type":"VEC4","name":"accessorAnimationRotations"},{"bufferView":3,"byteOffset":8064,"componentType":5126,"count":330,"max":[44.44],"min":[0.0],"type":"SCALAR","name":"accessorAnimationInput"},{"bufferView":5,"byteOffset":7128,"componentType":5126,"count":330,"type":"VEC3","name":"accessorAnimationPositions"},{"bufferView":3,"byteOffset":9384,"componentType":5126,"count":338,"max":[44.44],"min":[0.0],"type":"SCALAR","name":"accessorAnimationInput"},{"bufferView":4,"byteOffset":22752,"componentType":5126,"count":338,"type":"VEC4","name":"accessorAnimationRotations"}],"bufferViews":[{"buffer":0,"byteLength":284880,"name":"bufferViewScalar"},{"buffer":0,"byteOffset":284880,"byteLength":3418560,"byteStride":12,"name":"bufferViewFloatVec3"},{"buffer":0,"byteOffset":3703440,"byteLength":1139520,"byteStride":8,"name":"bufferViewFloatVec2"},{"buffer":0,"byteOffset":4842960,"byteLength":10736,"name":"bufferViewAnimationFloatScalar"},{"buffer":0,"byteOffset":4853696,"byteLength":28160,"name":"bufferViewAnimationFloatVec4"},{"buffer":0,"byteOffset":4881856,"byteLength":11088,"name":"bufferViewAnimationFloatVec3"}],"buffers":[{"uri":"anim.bin","byteLength":4892944}],"materials":[{"pbrMetallicRoughness":{"metallicFactor":0.0,"roughnessFactor":0.546446562},"name":"Material #2170"},{"pbrMetallicRoughness":{"baseColorFactor":[0.1943194,0.1989261,0.201438859,1.0],"roughnessFactor":0.549999952},"name":"16 - Defaultdd"},{"pbrMetallicRoughness":{"baseColorTexture":{"index":0,"extensions":{"KHR_texture_transform":{"texCoord":0}}},"metallicFactor":0.2,"roughnessFactor":0.3},"emissiveTexture":{"index":0,"extensions":{"KHR_texture_transform":{"texCoord":0}}},"emissiveFactor":[1.0,1.0,1.0],"name":"Material #2148"},{"pbrMetallicRoughness":{"baseColorTexture":{"index":0,"extensions":{"KHR_texture_transform":{"texCoord":0}}},"metallicFactor":0.6,"roughnessFactor":0.52},"emissiveTexture":{"index":0,"extensions":{"KHR_texture_transform":{"texCoord":0}}},"emissiveFactor":[1.0,1.0,1.0],"name":"Material #2148"},{"pbrMetallicRoughness":{"baseColorTexture":{"index":0,"extensions":{"KHR_texture_transform":{"texCoord":0}}},"metallicFactor":0.2,"roughnessFactor":0.3},"emissiveTexture":{"index":0,"extensions":{"KHR_texture_transform":{"texCoord":0}}},"emissiveFactor":[1.0,1.0,1.0],"name":"Material #2148"},{"pbrMetallicRoughness":{"baseColorFactor":[0.8813773,0.9022719,0.9136691,1.0],"roughnessFactor":0.549999952},"name":"16 - Default"},{"pbrMetallicRoughness":{"baseColorTexture":{"index":5,"extensions":{"KHR_texture_transform":{"texCoord":0}}},"metallicFactor":0.0,"roughnessFactor":0.36},"name":"Material #2144"},{"pbrMetallicRoughness":{"baseColorTexture":{"index":5,"extensions":{"KHR_texture_transform":{"texCoord":0}}},"metallicFactor":0.0,"roughnessFactor":0.36},"name":"Material #2144"},{"pbrMetallicRoughness":{"baseColorFactor":[0.928,0.95,0.962,1.0],"roughnessFactor":0.549999952},"name":"16 - Default"},{"pbrMetallicRoughness":{"metallicFactor":0.0,"roughnessFactor":0.546446562},"name":"Material #2185"},{"pbrMetallicRoughness":{"metallicFactor":0.0,"roughnessFactor":0.546446562},"name":"Material #2189"}],"textures":[{"sampler":0,"source":0,"name":"Pre-comp 1_00000.png"},{"sampler":0,"source":0,"name":"Pre-comp 1_00000.png"},{"sampler":0,"source":0,"name":"Pre-comp 1_00000.png"},{"sampler":0,"source":0,"name":"Pre-comp 1_00000.png"},{"sampler":0,"source":0,"name":"Pre-comp 1_00000.png"},{"sampler":0,"source":1,"name":"uv numbers tex.png"},{"sampler":0,"source":1,"name":"uv numbers tex.png"}],"images":[{"uri":"./Pre-comp 1_00000.png"},{"uri":"./uv numbers tex.png"}],"samplers":[{"magFilter":9729,"minFilter":9987}],"animations":[{"channels":[{"sampler":0,"target":{"node":0,"path":"rotation"}},{"sampler":1,"target":{"node":1,"path":"translation"}},{"sampler":2,"target":{"node":1,"path":"rotation"}},{"sampler":3,"target":{"node":5,"path":"rotation"}},{"sampler":4,"target":{"node":10,"path":"rotation"}},{"sampler":5,"target":{"node":11,"path":"translation"}},{"sampler":6,"target":{"node":11,"path":"rotation"}},{"sampler":7,"target":{"node":12,"path":"rotation"}},{"sampler":8,"target":{"node":13,"path":"translation"}},{"sampler":9,"target":{"node":13,"path":"rotation"}}],"samplers":[{"input":56,"output":57},{"input":58,"output":59},{"input":60,"output":61},{"input":62,"output":63},{"input":64,"output":65},{"input":66,"output":67},{"input":68,"output":69},{"input":70,"output":71},{"input":72,"output":73},{"input":74,"output":75}],"name":"All Animations"}],"extensions":{"KHR_lights_punctual":{"lights":[{"intensity":0.4,"type":"point"},{"intensity":0.2,"type":"point"},{"intensity":0.2,"type":"point"}]}}}